<?xml version="1.0" encoding="UTF-8" standalone="no"?>
<!-- Created with Inkscape (http://www.inkscape.org/) -->

<svg
   xmlns:dc="http://purl.org/dc/elements/1.1/"
   xmlns:cc="http://creativecommons.org/ns#"
   xmlns:rdf="http://www.w3.org/1999/02/22-rdf-syntax-ns#"
   xmlns:svg="http://www.w3.org/2000/svg"
   xmlns="http://www.w3.org/2000/svg"
   version="1.1"
   width="54.699558"
   height="100.75163"
   id="svg44645">
  <defs
     id="defs44647">
    <clipPath
       id="clipPath25217">
      <path
         d="m 64.209,253.332 52.791,0 0,90.468 -52.791,0 0,-90.468 z"
         id="path25219" />
    </clipPath>
  </defs>
  <metadata
     id="metadata44650">
    <rdf:RDF>
      <cc:Work
         rdf:about="">
        <dc:format>image/svg+xml</dc:format>
        <dc:type
           rdf:resource="http://purl.org/dc/dcmitype/StillImage" />
        <dc:title></dc:title>
      </cc:Work>
    </rdf:RDF>
  </metadata>
  <g
     transform="translate(-546.91502,-139.12263)"
     id="layer1">
    <g
       transform="matrix(1.25,0,0,-1.25,461.51602,563.6502)"
       clip-path="url(#clipPath25217)"
       id="g25215">
      <g
         transform="translate(89.256699,262.677)"
         id="g25221">
        <path
           d="m 0,0 -12.984,-2.293 2.371,25.104 -1.673,0.805 c 0,0 -2.134,-1.771 -4.367,0.3 l -3.145,4.063 0.131,8.648 0.114,0.891 c 0,0 0.333,5.766 1.336,7.27 0,0 1.173,2.226 4.055,4.288 0,0 3.717,2.398 4.134,2.899 0,0 1.922,1.671 2.758,1.838 l -0.084,0.669 c 0,0 -2.423,1.838 -2.925,5.014 0,0 -0.03,2.503 0.57,3.34 l 0.002,1.441 c 0,0 -1.276,0.245 -1.383,0.823 0,0 0.037,0.647 0.841,1.282 0,0 -0.698,0.549 -0.949,2.304 l 0.167,0.585 0.752,2.256 c 0,0 0.669,1.005 0.92,1.086 0.25,0.085 -0.251,-0.081 -0.251,-0.081 0,0 1.834,0.877 3.047,2.36 l 1.215,0.73 0.358,0.188 c 0,0 1.647,0.063 2.316,-0.188 l 2.009,0.057 1.166,-0.39 c 0,0 1.639,-0.372 2.806,-1.54 0.069,-0.069 0.136,-0.14 0.201,-0.215 1.171,-1.338 0.837,-1.254 0.837,-1.254 l 1.086,-1.839 0.717,-1.446 0.369,-1.143 c 0,0 0,-0.753 0.418,-1.254 0,0 0.919,-0.919 0,-1.337 L 6.542,64.933 c 0,0 0.56,-2.178 0.226,-3.182 l -0.226,-0.75 c 0,0 -1.996,-0.601 -2.098,-1.179 0,0 -0.072,-0.994 -1.047,-0.786 0,0 -0.64,-2.549 -2.98,-4.471 l 0.228,-0.771 5.956,-2.822 c 0,0 4.634,-2.294 5.576,-5.827 0,0 2.698,-8.379 3.115,-14.479 l 0.161,-1.771 c 0,0 -0.747,0.183 -1.081,0.099 L 13.453,19.552 13.37,18.298 c 0,0 0.083,-1.503 0.167,-2.421 l 0,-1.004 c 0,0 4.094,-1.671 5.932,-4.094 0,0 3.024,-3.167 2.056,-6.472 0,0 -0.886,-4.892 -7.069,-6.313 0,0 -7.438,-2.089 -14.456,2.006 z"
           id="path25223"
           style="fill:none;stroke:#231f20;stroke-width:2.25;stroke-linecap:butt;stroke-linejoin:miter;stroke-miterlimit:4;stroke-opacity:1;stroke-dasharray:none" />
      </g>
      <g
         transform="translate(97.863098,289.1658)"
         id="g25225">
        <path
           d="m 0,0 0.255,0.099 c 0,0 0.915,0.736 1.333,0.903 0,0 0.668,-5.515 0.167,-7.102 L 0,0 z"
           id="path25227"
           style="fill:none;stroke:#231f20;stroke-width:2.25;stroke-linecap:butt;stroke-linejoin:miter;stroke-miterlimit:4;stroke-opacity:1;stroke-dasharray:none" />
      </g>
      <g
         transform="translate(80.859497,316.0779)"
         id="g25229">
        <path
           d="M 0,0 C 0,0 1.09,0.619 2.663,0.356 L 2.314,-2.177 1.702,-4.186 0.566,-4.361 0.304,-2.44 0.042,-0.517 0,0 z"
           id="path25231"
           style="fill:#e2e2e2;fill-opacity:1;fill-rule:nonzero;stroke:none" />
      </g>
      <g
         transform="translate(81.8629,317.7449)"
         id="g25233">
        <path
           d="m 0,0 c 0,0 0.611,-2.972 0.262,-4.281 l -0.611,-1.048 2.271,-3.321 3.32,-3.67 3.232,1.661 0.088,6.988 c 0,0 -0.699,3.059 -0.699,3.933 L 5.591,0.436 1.835,0.698 0.436,0.262 0,0 z"
           id="path25235"
           style="fill:#fce6b2;fill-opacity:1;fill-rule:nonzero;stroke:none" />
      </g>
      <g
         transform="translate(72.604004,286.5928)"
         id="g25237">
        <path
           d="M 0,0 C 0,0 2.357,-1.786 4.366,-0.299 L 5.677,1.184 5.502,3.282 3.58,4.855 1.133,4.943 -0.352,3.456 -0.09,1.621 -0.439,0.922 0,0 z"
           id="path25239"
           style="fill:#e2e2e2;fill-opacity:1;fill-rule:nonzero;stroke:none" />
      </g>
      <g
         transform="translate(80.859497,316.0779)"
         id="g25241">
        <path
           d="m 0,0 c 0,0 1.18,-3.013 3.145,-4.194 0,0 1.573,-1.835 1.311,-2.751 l 2.097,-0.131 c 0,0 -0.656,2.359 1.572,4.324 0,0 1.311,1.965 0.917,3.145 l 3.931,-1.835 c 0,0 6.291,-1.702 7.601,-6.814 0,0 2.38,-7.821 2.818,-11.129 0.034,-0.249 0.055,-0.472 0.065,-0.664 0.131,-2.752 0.262,-2.36 0.393,-4.456 0,0 -3.276,0.655 -6.028,-1.834 l -0.916,0.13 6.158,-21.753 1.441,-2.62 -29.091,-5.111 2.358,24.767 -0.131,4.848 c 0,0 -1.572,1.441 -2.752,0.917 0,0 -3.144,-1.441 -3.144,-4.324 l -3.146,4.063 0.131,8.648 0.786,6.553 c 0,0 0.656,3.276 4.719,5.896 L -2.883,-2.359 0,0 z"
           id="path25243"
           style="fill:#ffffff;fill-opacity:1;fill-rule:nonzero;stroke:none" />
      </g>
      <g
         transform="translate(92.654098,322.8923)"
         id="g25245">
        <path
           d="m 0,0 c 0,-3.764 -3.051,-6.815 -6.815,-6.815 -3.763,0 -6.813,3.051 -6.813,6.815 0,0.928 0.185,1.814 0.522,2.621 1.027,2.462 3.457,4.193 6.291,4.193 C -3.051,6.814 0,3.763 0,0"
           id="path25247"
           style="fill:#fce6b2;fill-opacity:1;fill-rule:nonzero;stroke:none" />
      </g>
      <g
         transform="translate(97.764999,289.8689)"
         id="g25249">
        <path
           d="m 0,0 0.086,2.539 -0.088,2.796 -0.611,1.922 0.087,3.932 -0.349,2.883 0.349,3.582 -0.928,-4.05 0.362,-2.649 -0.241,-3.853 0.843,-2.048 -0.121,-2.528 0,-1.806 0.242,-1.205 L 0.353,-0.604 1.075,0.238 0,0 z"
           id="path25251"
           style="fill:#e2e2e2;fill-opacity:1;fill-rule:nonzero;stroke:none" />
      </g>
      <g
         transform="translate(86.318695,262.3533)"
         id="g25253">
        <path
           d="m 0,0 -0.962,10.31 -0.699,6.815 -1.309,9.61 -1.136,18.959 3.102,1.086 L -5.06,45.817 -0.725,0.659 0,0 z"
           id="path25255"
           style="fill:#e2e2e2;fill-opacity:1;fill-rule:nonzero;stroke:none" />
      </g>
      <g
         transform="translate(103.4427,289.4375)"
         id="g25257">
        <path
           d="m 0,0 c 0,0 -1.049,-7.775 -0.875,-9.872 l 0.439,-2.883 0.086,-2.01 -1.922,0.524 -1.573,2.796 0.175,3.233 c 0,0 0.087,6.728 -0.175,7.949 l -0.349,2.098 2.01,1.923 1.921,0.26 L 0.349,3.145 0,0 z"
           id="path25259"
           style="fill:#fce6b2;fill-opacity:1;fill-rule:nonzero;stroke:none" />
      </g>
      <g
         transform="translate(85.053406,306.2495)"
         id="g25261">
        <path
           d="m 0,0 c 0,-0.434 -0.353,-0.786 -0.786,-0.786 -0.434,0 -0.787,0.352 -0.787,0.786 0,0.434 0.353,0.787 0.787,0.787 C -0.353,0.787 0,0.434 0,0"
           id="path25263"
           style="fill:#cccbcc;fill-opacity:1;fill-rule:nonzero;stroke:none" />
      </g>
      <g
         transform="translate(90.819,306.2495)"
         id="g25265">
        <path
           d="m 0,0 c 0,-0.434 -0.352,-0.786 -0.786,-0.786 -0.434,0 -0.786,0.352 -0.786,0.786 0,0.434 0.352,0.787 0.786,0.787 C -0.352,0.787 0,0.434 0,0"
           id="path25267"
           style="fill:#cccbcc;fill-opacity:1;fill-rule:nonzero;stroke:none" />
      </g>
      <g
         transform="translate(86.101501,292.8835)"
         id="g25269">
        <path
           d="m 0,0 c 0,-0.434 -0.352,-0.787 -0.786,-0.787 -0.434,0 -0.787,0.353 -0.787,0.787 0,0.434 0.353,0.786 0.787,0.786 C -0.352,0.786 0,0.434 0,0"
           id="path25271"
           style="fill:#cccbcc;fill-opacity:1;fill-rule:nonzero;stroke:none" />
      </g>
      <g
         transform="translate(91.867493,292.8835)"
         id="g25273">
        <path
           d="m 0,0 c 0,-0.434 -0.352,-0.787 -0.786,-0.787 -0.435,0 -0.787,0.353 -0.787,0.787 0,0.434 0.352,0.786 0.787,0.786 C -0.352,0.786 0,0.434 0,0"
           id="path25275"
           style="fill:#cccbcc;fill-opacity:1;fill-rule:nonzero;stroke:none" />
      </g>
      <g
         transform="translate(85.446701,299.56619)"
         id="g25277">
        <path
           d="m 0,0 c 0,-0.434 -0.353,-0.786 -0.787,-0.786 -0.433,0 -0.786,0.352 -0.786,0.786 0,0.434 0.353,0.788 0.786,0.788 C -0.353,0.788 0,0.434 0,0"
           id="path25279"
           style="fill:#cccbcc;fill-opacity:1;fill-rule:nonzero;stroke:none" />
      </g>
      <g
         transform="translate(91.212402,299.56619)"
         id="g25281">
        <path
           d="m 0,0 c 0,-0.434 -0.353,-0.786 -0.786,-0.786 -0.434,0 -0.786,0.352 -0.786,0.786 0,0.434 0.352,0.788 0.786,0.788 C -0.353,0.788 0,0.434 0,0"
           id="path25283"
           style="fill:#cccbcc;fill-opacity:1;fill-rule:nonzero;stroke:none" />
      </g>
      <g
         transform="translate(88.460205,281.6138)"
         id="g25285">
        <path
           d="m 0,0 c 0,-0.434 -0.352,-0.787 -0.786,-0.787 -0.434,0 -0.786,0.353 -0.786,0.787 0,0.433 0.352,0.786 0.786,0.786 C -0.352,0.786 0,0.433 0,0"
           id="path25287"
           style="fill:#cccbcc;fill-opacity:1;fill-rule:nonzero;stroke:none" />
      </g>
      <g
         transform="translate(94.226593,281.6138)"
         id="g25289">
        <path
           d="m 0,0 c 0,-0.434 -0.353,-0.787 -0.787,-0.787 -0.434,0 -0.787,0.353 -0.787,0.787 0,0.433 0.353,0.786 0.787,0.786 C -0.353,0.786 0,0.433 0,0"
           id="path25291"
           style="fill:#cccbcc;fill-opacity:1;fill-rule:nonzero;stroke:none" />
      </g>
      <g
         transform="translate(79.447403,329.05859)"
         id="g25293">
        <path
           d="m 0,0 -0.029,-3.938 c 0,0 1.31,4.585 5.897,4.455 0,0 4.979,0.655 6.552,-4.455 l 0.262,4.455 c 0,0 -1.402,3.891 -5.727,4.022 0,0 -7.034,0.044 -6.955,-4.539"
           id="path25295"
           style="fill:#ffffff;fill-opacity:1;fill-rule:nonzero;stroke:none" />
      </g>
      <g
         transform="translate(79.549698,326.95441)"
         id="g25297">
        <path
           d="m 0,0 c 0,0 -2.768,0.531 -0.542,2.104 l -0.638,0.91 c 0,0 -0.655,1.835 0.262,3.014 l 0.262,0.655 c 0,0 0,1.311 1.835,2.096 l 1.048,0.918 0.918,0.918 1.572,0.918 1.311,0 1.311,-0.132 1.703,0 2.62,-0.917 c 0,0 2.229,-1.573 2.753,-2.883 L 15.856,4.717 16.249,3.145 17.167,1.703 16.249,0.655 16.642,-1.834 16.249,-3.276 14.939,-3.8 14.152,-4.455 14.021,-4.979 13.104,-5.241 11.794,0.262 10.09,2.49 6.814,3.407 4.062,3.538 3.145,2.228 0.917,0.917 0,0 z"
           id="path25299"
           style="fill:#ffffff;fill-opacity:1;fill-rule:nonzero;stroke:none" />
      </g>
      <g
         transform="translate(80.253204,331.5847)"
         id="g25301">
        <path
           d="M 0,0 C 0,0 -1.062,1.464 -1.025,2.16 -1.025,2.16 -1.281,1.354 0,0"
           id="path25303"
           style="fill:#e2e2e2;fill-opacity:1;fill-rule:nonzero;stroke:none" />
      </g>
      <g
         transform="translate(80.838699,332.4263)"
         id="g25305">
        <path
           d="M 0,0 C 0,0 -0.403,1.244 0.22,2.197 0.22,2.197 -0.659,1.977 0,0"
           id="path25307"
           style="fill:#e2e2e2;fill-opacity:1;fill-rule:nonzero;stroke:none" />
      </g>
      <g
         transform="translate(82.156296,332.9023)"
         id="g25309">
        <path
           d="m 0,0 c 0,0 -0.439,1.135 -0.219,1.867 0,0 0.256,1.354 0.732,2.27 0,0 -0.805,-0.514 -0.916,-3.113 0,0 0.147,-0.658 0.403,-1.024"
           id="path25311"
           style="fill:#e2e2e2;fill-opacity:1;fill-rule:nonzero;stroke:none" />
      </g>
      <g
         transform="translate(83.364807,333.3419)"
         id="g25313">
        <path
           d="M 0,0 C 0,0 -0.11,0.988 0.183,1.684 L 0.366,2.086 0.293,2.342 c 0,0 -0.184,-0.586 -0.403,-0.805 0,0 -0.183,-0.915 0.11,-1.537"
           id="path25315"
           style="fill:#e2e2e2;fill-opacity:1;fill-rule:nonzero;stroke:none" />
      </g>
      <g
         transform="translate(84.682404,333.5609)"
         id="g25317">
        <path
           d="m 0,0 c 0,0 -0.475,1.025 -0.183,2.416 l 0.146,1.245 c 0,0 0.22,1.024 0.037,1.208 0,0 0.293,-0.037 0.037,-2.086 C 0.037,2.783 -0.439,1.135 0,0"
           id="path25319"
           style="fill:#e2e2e2;fill-opacity:1;fill-rule:nonzero;stroke:none" />
      </g>
      <g
         transform="translate(79.593903,330.85229)"
         id="g25321">
        <path
           d="m 0,0 c 0,0 -0.512,0.988 -0.732,1.172 0,0 -0.109,0.11 -0.146,0.585 0,0 -0.22,-0.659 0.439,-1.354 L 0,0 z"
           id="path25323"
           style="fill:#e2e2e2;fill-opacity:1;fill-rule:nonzero;stroke:none" />
      </g>
      <g
         transform="translate(86.366196,336.30659)"
         id="g25325">
        <path
           d="m 0,0 0.329,0.769 0.183,0.622 0,0.403 c 0,0 -0.329,-0.879 -0.585,-1.245 -0.256,-0.366 -0.037,0.11 -0.037,0.11 0,0 -0.11,-1.428 0.11,-0.659"
           id="path25327"
           style="fill:#e2e2e2;fill-opacity:1;fill-rule:nonzero;stroke:none" />
      </g>
      <g
         transform="translate(87.318497,333.634)"
         id="g25329">
        <path
           d="m 0,0 c 0,0 0.915,1.831 1.72,2.746 l 0.549,0.513 0.476,0.439 0.146,0.219 c 0,0 0.293,-0.402 -0.219,-0.549 0,0 -1.795,-1.464 -2.672,-3.588 L 0,0 z"
           id="path25331"
           style="fill:#e2e2e2;fill-opacity:1;fill-rule:nonzero;stroke:none" />
      </g>
      <g
         transform="translate(88.453003,333.23199)"
         id="g25333">
        <path
           d="M 0,0 C 0,0 0.805,0.952 0.769,1.426 0.732,1.903 0.878,1.538 0.878,1.538 L 0.586,1.207 c 0,0 -0.183,0.587 0.036,0.99 0,0 -0.33,-0.917 -0.293,-1.136 0,0 0.293,0 -0.329,-1.061"
           id="path25335"
           style="fill:#e2e2e2;fill-opacity:1;fill-rule:nonzero;stroke:none" />
      </g>
      <g
         transform="translate(90.466293,331.7312)"
         id="g25337">
        <path
           d="m 0,0 c 0,0 0.841,0.182 1.574,0 0,0 0.988,0.109 1.171,0.403 0,0 1.244,0.988 1.172,-0.221 0,0 -0.403,0.696 -0.807,0.111 0,0 -0.73,-0.842 -1.829,-0.769 l -0.695,0 L 0.037,-0.549 0,0 z"
           id="path25339"
           style="fill:#e2e2e2;fill-opacity:1;fill-rule:nonzero;stroke:none" />
      </g>
      <g
         transform="translate(79.557694,328.65581)"
         id="g25341">
        <path
           d="m 0,0 c 0,0 -1.062,-0.257 -1.391,-0.879 0,0 0.642,-0.803 1.383,-0.823 L 0,0 z"
           id="path25343"
           style="fill:#e2e2e2;fill-opacity:1;fill-rule:nonzero;stroke:none" />
      </g>
      <g
         transform="translate(91.490997,330.6326)"
         id="g25345">
        <path
           d="m 0,0 c 0,0 0.549,0.476 0.805,-0.22 0,0 0.403,-0.695 0.77,-0.658 0,0 0.987,-0.549 0.767,-0.916 0,0 -0.658,0.842 -1.207,0.879 0,0 -0.476,0.329 -0.586,0.622 0,0 -0.366,0.11 -0.44,-0.11 L 0,0 z"
           id="path25347"
           style="fill:#e2e2e2;fill-opacity:1;fill-rule:nonzero;stroke:none" />
      </g>
      <g
         transform="translate(91.820602,326.3501)"
         id="g25349">
        <path
           d="m 0,0 c 0,0 1.135,-0.733 1.318,-1.354 0,0 0.622,-0.989 1.062,-1.063 0,0 0.402,-0.365 0.402,-0.585 0,0 -1.062,0.988 -1.5,1.062 0,0 -0.367,0.329 -0.66,0.988 0,0 -0.293,0.512 -0.696,0.512 L 0,0 z"
           id="path25351"
           style="fill:#e2e2e2;fill-opacity:1;fill-rule:nonzero;stroke:none" />
      </g>
      <g
         transform="translate(91.893799,328.9487)"
         id="g25353">
        <path
           d="m 0,0 c 0,0 0.989,-0.805 1.609,-1.5 0,0 1.063,-0.733 1.099,-1.136 l 0.33,-0.549 c 0,0 -0.11,-0.475 -0.622,-0.365 l 0,0.512 -0.074,0.292 c 0,0 -0.878,0.806 -1.134,1.319 0,0 -0.659,1.281 -1.208,1.427"
           id="path25355"
           style="fill:#e2e2e2;fill-opacity:1;fill-rule:nonzero;stroke:none" />
      </g>
      <g
         transform="translate(92.662903,329.27831)"
         id="g25357">
        <path
           d="m 0,0 c 0,0 0.659,-0.548 1.024,-0.659 0,0 1.135,-0.988 0.733,-1.245 -0.403,-0.256 -0.183,0.037 -0.183,0.037 0,0 0.146,0.549 -1.062,1.245 0,0 -0.403,0.255 -0.512,0.622"
           id="path25359"
           style="fill:#e2e2e2;fill-opacity:1;fill-rule:nonzero;stroke:none" />
      </g>
      <g
         transform="translate(95.799194,327.60989)"
         id="g25361">
        <path
           d="m 0,0 c 0,0 -0.02,0.046 -0.056,0.121 -0.15,0.324 -0.58,1.195 -0.848,1.255 0,0 1.409,-0.107 1.821,-0.328 C 1.329,0.827 1.073,0.974 1.073,0.974 L 0,0 z"
           id="path25363"
           style="fill:#e2e2e2;fill-opacity:1;fill-rule:nonzero;stroke:none" />
      </g>
      <g
         transform="translate(89.404694,332.82919)"
         id="g25365">
        <path
           d="m 0,0 c 0,0 0.622,0.293 0.622,0.805 0,0 0.256,0.55 0.842,0.842 0,0 0.293,0.294 0.184,0.55 0,0 0.182,-0.514 -0.513,-1.026 L 0.842,0.805 C 0.842,0.805 0.695,0.146 0,0"
           id="path25367"
           style="fill:#e2e2e2;fill-opacity:1;fill-rule:nonzero;stroke:none" />
      </g>
      <g
         transform="translate(78.106003,290.4857)"
         id="g25369">
        <path
           d="m 0,0 -0.175,0.961 -0.349,0.961 -0.263,0.962 -0.261,1.047 0.087,1.137 -0.262,1.572 -0.087,1.136 -0.438,1.922 -0.261,1.748 0.174,1.223 -0.174,2.271 0.826,-2.675 -0.12,-0.722 0,-1.686 0.362,-2.048 0.481,-2.528 0.241,-1.566 0.361,-1.203 0,-0.843 L 0.382,0.463 0.394,-0.485 0,-0.611 0,0 z"
           id="path25371"
           style="fill:#e2e2e2;fill-opacity:1;fill-rule:nonzero;stroke:none" />
      </g>
      <g
         transform="translate(78.649902,289.89529)"
         id="g25373">
        <path
           d="m 0,0 0.766,-0.545 0.699,-0.349 2.01,-0.525 1.572,-0.874 2.184,-0.524 1.137,-0.699 0.349,-0.611 1.136,-1.048 0.261,-0.525 c 0.612,-0.262 0.787,-1.048 0.787,-1.048 C 10.639,-6.923 9.678,-6.835 9.678,-6.835 8.891,-6.661 7.582,-5.788 7.582,-5.788 L 7.057,-5.7 6.883,-6.137 l 0.174,-0.611 0.437,-1.486 1.135,-1.135 0.786,-0.787 1.486,-1.222 -0.524,-0.175 c -0.786,0.261 -1.398,0.698 -1.398,0.698 l -0.961,0.088 c -1.311,0 -2.708,1.398 -2.708,1.398 l -1.223,0.524 -0.524,1.485 -0.874,2.185 -1.66,0.611 c -1.573,0.35 -6.815,2.534 -6.815,2.534 l -0.058,0.042 c 0,0 0.208,0.358 0.226,0.452 l 0.321,0.547 0.697,0.811 c 0,0 0.735,0.64 1.225,0.942 0,0 0.603,0.414 1.225,0.358 0,0 0.81,-0.132 1.47,-0.622 L -0.227,0.18 0,0 z"
           id="path25375"
           style="fill:#fce6b2;fill-opacity:1;fill-rule:nonzero;stroke:none" />
      </g>
      <g
         transform="translate(85.007996,282.5352)"
         id="g25377">
        <path
           d="M 0,0 5.155,-4.63 5.766,-5.241 5.854,-6.64 7.339,-6.815 9.348,-6.115 8.911,-5.154 3.32,0.525 1.834,2.272 0.699,2.884 -0.437,2.622 -0.699,1.748 -0.437,0.437 0,0 z"
           id="path25379"
           style="fill:#231f20;fill-opacity:1;fill-rule:nonzero;stroke:none" />
      </g>
      <g
         transform="translate(91.444107,270.15871)"
         id="g25381">
        <path
           d="m 0,0 c 0,0 1.863,1.69 5.707,1.339 0,0 1.573,0 2.97,-0.582 0,0 2.098,-1.106 2.273,-2.038 0,0 0.64,-1.806 1.282,-2.388 l -2.273,-1.398 -1.455,0.233 -3.03,0.698 -4.892,0.233 c 0,0 -3.436,1.515 -0.582,3.903 z"
           id="path25383"
           style="fill:none;stroke:#dc284c;stroke-width:0.75;stroke-linecap:butt;stroke-linejoin:miter;stroke-miterlimit:4;stroke-opacity:1;stroke-dasharray:none" />
      </g>
      <g
         transform="translate(83.609802,270.0423)"
         id="g25385">
        <path
           d="m 0,0 c 0,0 0.553,-6.057 8.999,-8.999 0,0 15.638,-4.107 18.173,5.941 L 26.297,-1.397 21.056,1.66 10.135,2.359 2.97,1.747 0.088,2.911 C 0.088,2.911 -0.262,2.272 0,0"
           id="path25387"
           style="fill:#797677;fill-opacity:1;fill-rule:nonzero;stroke:none" />
      </g>
      <g
         transform="translate(94.268402,278.6035)"
         id="g25389">
        <path
           d="m 0,0 c 0,0 -8.3,0 -10.397,-4.805 0,0 -2.009,-4.367 3.146,-7.95 0,0 6.465,-4.281 16.337,-3.844 0,0 8.562,1.049 7.602,7.164 0,0 -1.66,9.698 -16.688,9.435"
           id="path25391"
           style="fill:#f2f2f2;fill-opacity:1;fill-rule:nonzero;stroke:none" />
      </g>
      <g
         transform="translate(90.585007,277.9202)"
         id="g25393">
        <path
           d="m 0,0 c 0,0 -5.3,-0.99 -6.581,-4.544 0,0 -1.981,-5.066 5.067,-8.503 0,0 9.318,-4.544 17.531,-1.807 0,0 4.66,2.039 4.193,5.71 0,0 -0.582,4.309 -6.289,7.629 0,0 -5.651,2.911 -13.921,1.515"
           id="path25395"
           style="fill:#cccbcc;fill-opacity:1;fill-rule:nonzero;stroke:none" />
      </g>
      <g
         transform="translate(86.8423,266.1985)"
         id="g25397">
        <path
           d="m 0,0 c 0,0 -0.874,6.523 6.116,7.514 0,0 4.543,0.96 9.435,-1.399 0,0 4.428,-1.514 5.068,-5.766 0,0 -0.014,-2.81 -3.364,-4.149 0,0 -8.868,-1.442 -16.861,3.537 L 0,0 z"
           id="path25399"
           style="fill:#b6b5b5;fill-opacity:1;fill-rule:nonzero;stroke:none" />
      </g>
      <g
         transform="translate(90.395294,269.57651)"
         id="g25401">
        <path
           d="m 0,0 c 0,0 -0.233,-1.397 0.058,-2.039 0,0 0.641,-1.164 1.573,-1.282 l 4.892,-0.233 4.485,-0.93 2.272,1.398 0.058,0.989 -2.737,-0.175 -7.165,1.34 L 1.747,-0.116 0.524,0.058 0,0 z"
           id="path25403"
           style="fill:#fcdfd6;fill-opacity:1;fill-rule:nonzero;stroke:none" />
      </g>
      <g
         transform="translate(91.501999,271.1489)"
         id="g25405">
        <path
           d="m 0,0 c 0,0 1.864,1.69 5.707,1.339 0,0 1.574,0 2.971,-0.582 0,0 2.098,-1.106 2.273,-2.038 0,0 0.639,-1.805 1.281,-2.389 l -2.272,-1.397 -1.457,0.232 -3.028,0.7 -4.893,0.233 c 0,0 -3.436,1.513 -0.582,3.902"
           id="path25407"
           style="fill:#f58b9a;fill-opacity:1;fill-rule:nonzero;stroke:none" />
      </g>
    </g>
  </g>
</svg>
