<?xml version="1.0" encoding="UTF-8" standalone="no"?>
<svg
   xmlns:dc="http://purl.org/dc/elements/1.1/"
   xmlns:cc="http://creativecommons.org/ns#"
   xmlns:rdf="http://www.w3.org/1999/02/22-rdf-syntax-ns#"
   xmlns:svg="http://www.w3.org/2000/svg"
   xmlns="http://www.w3.org/2000/svg"
   version="1.1"
   id="svg2"
   viewBox="0 0 35.000001 35.000001"
   height="9.8777781mm"
   width="9.8777781mm">
  <defs
     id="defs4">
    <filter
       id="filter4559"
       style="color-interpolation-filters:sRGB;">
      <feFlood
         id="feFlood4561"
         result="flood"
         flood-color="rgb(0,0,0)"
         flood-opacity="0.498039" />
      <feComposite
         id="feComposite4563"
         result="composite1"
         operator="out"
         in2="SourceGraphic"
         in="flood" />
      <feGaussianBlur
         id="feGaussianBlur4565"
         result="blur"
         stdDeviation="1.5"
         in="composite1" />
      <feOffset
         id="feOffset4567"
         result="offset"
         dy="-2.77556e-17"
         dx="0" />
      <feComposite
         id="feComposite4569"
         result="composite2"
         operator="atop"
         in2="SourceGraphic"
         in="offset" />
    </filter>
    <filter
       id="filter4619"
       style="color-interpolation-filters:sRGB;">
      <feFlood
         id="feFlood4621"
         result="flood"
         flood-color="rgb(0,0,0)"
         flood-opacity="0.498039" />
      <feComposite
         id="feComposite4623"
         result="composite1"
         operator="in"
         in2="SourceGraphic"
         in="flood" />
      <feGaussianBlur
         id="feGaussianBlur4625"
         result="blur"
         stdDeviation="1"
         in="composite1" />
      <feOffset
         id="feOffset4627"
         result="offset"
         dy="-2.77556e-17"
         dx="0" />
      <feComposite
         id="feComposite4629"
         result="composite2"
         operator="over"
         in2="offset"
         in="SourceGraphic" />
    </filter>
  </defs>
  <metadata
     id="metadata7">
    <rdf:RDF>
      <cc:Work
         rdf:about="">
        <dc:format>image/svg+xml</dc:format>
        <dc:type
           rdf:resource="http://purl.org/dc/dcmitype/StillImage" />
        <dc:title></dc:title>
      </cc:Work>
    </rdf:RDF>
  </metadata>
  <g
     transform="translate(-27.142853,-29.454308)"
     id="layer1">
    <circle
       r="17.5"
       cy="46.954308"
       cx="44.642853"
       id="path4144"
       style="fill:#3154e0;fill-opacity:1;fill-rule:evenodd;stroke:none;stroke-width:1px;stroke-linecap:butt;stroke-linejoin:miter;stroke-opacity:1;filter:url(#filter4559)" />
    <path
       id="rect4150"
       transform="matrix(0.70710678,-0.70710678,0.70710678,0.70710678,20.505588,46.706692)"
       d="m 17.708984,2.8671875 c -0.380783,-0.03706 -0.737323,0.2591569 -1.091796,0.6054687 l -5.525391,5.4003907 c -0.0049,0.017482 -0.0052,0.031529 -0.0098,0.048828 -0.172445,0.1520141 -0.291014,0.3390125 -0.291015,0.5527344 l 0,20.0585936 c 0,0.486876 0.538374,0.878906 1.205078,0.878906 l 11.021484,0 c 0.666704,0 1.205079,-0.39203 1.205078,-0.878906 l 0,-20.0585936 c -1e-6,-0.282958 -0.193836,-0.5211081 -0.476562,-0.6816406 0.0027,-0.0068 0.0091,-0.012743 0.01172,-0.019531 L 18.544922,3.4726562 18.099609,3.0253906 C 17.966207,2.9279705 17.835912,2.879541 17.708984,2.8671875 Z M 17.5,7.5996094 A 1.1995561,1.1995561 0 0 1 18.699219,8.7988281 1.1995561,1.1995561 0 0 1 17.5,9.9980469 1.1995561,1.1995561 0 0 1 16.300781,8.7988281 1.1995561,1.1995561 0 0 1 17.5,7.5996094 Z"
       style="fill:#ffffff;fill-opacity:1;stroke:none;filter:url(#filter4619)" />
  </g>
</svg>
